<svg width="61" height="60" viewBox="0 0 61 60" fill="none" xmlns="http://www.w3.org/2000/svg">
<path d="M47.1199 28.3898C53.0372 30.4971 57.0483 32.5459 59.1531 34.5361C59.7091 35.0825 60.1558 35.8239 60.4934 36.7605C60.831 37.6971 60.9997 38.7703 60.9997 39.98C60.9997 41.1898 60.6622 42.5069 59.9871 43.9312C59.3119 45.3556 58.2992 46.7312 56.949 48.0581C55.1619 49.7751 53.1663 50.9947 50.9622 51.7166C48.758 52.4386 46.8518 52.6825 45.2434 52.4483C43.635 52.2142 42.5727 51.6678 42.0564 50.8093C41.0636 49.1703 39.6339 46.9459 37.7673 44.1361C35.9008 41.3264 34.2328 38.7703 32.7634 36.4678C33.1606 40.0581 33.518 44.0191 33.8357 48.3508C34.1534 52.6825 34.3123 55.3166 34.3123 56.2532C34.3123 57.3069 33.9449 58.1947 33.2102 58.9166C32.4755 59.6386 31.5819 59.9995 30.5295 59.9995C29.4771 59.9995 28.5736 59.6386 27.8191 58.9166C27.0645 58.1947 26.6873 57.3069 26.6873 56.2532C26.6873 55.2776 26.8461 52.5361 27.1638 48.0288C27.4815 43.5215 27.8588 39.4727 28.2957 35.8825C26.7865 38.1459 25.0789 40.6532 23.1726 43.4044C21.2664 46.1556 19.8367 48.3117 18.8835 49.8727C18.4467 50.4971 17.7219 51.0434 16.7092 51.5117C15.6965 51.98 14.5349 52.2922 13.2244 52.4483C11.9138 52.6044 10.4543 52.4191 8.84595 51.8922C7.23755 51.3654 5.74829 50.4776 4.37817 49.2288C3.00806 47.98 1.95565 46.5556 1.22095 44.9556C0.486247 43.3556 0.0891113 41.8532 0.029541 40.4483C-0.0300293 39.0434 0.0891113 37.7751 0.386963 36.6434C0.684814 35.5117 1.11173 34.6922 1.66772 34.1849C2.89884 33.0532 4.87459 31.8727 7.59497 30.6434C10.3153 29.4142 13.3236 28.2922 16.6199 27.2776C14.9122 26.6922 12.996 26.1069 10.8713 25.5215C8.74666 24.9361 6.9397 24.3995 5.45044 23.9117C3.96118 23.4239 2.58114 22.8093 1.3103 22.0678C0.674886 21.6776 0.287679 20.8776 0.148682 19.6678C0.00968425 18.4581 0.118896 17.0922 0.476318 15.5703C0.83374 14.0483 1.48901 12.4093 2.44214 10.6532C3.39526 8.8971 4.54696 7.32637 5.89722 5.941C7.24748 4.55564 8.78638 3.38491 10.5139 2.42881C12.2415 1.47271 13.8499 0.809296 15.3391 0.438564C16.8284 0.0678326 18.1786 -0.0589967 19.3899 0.0580765C20.6012 0.17515 21.4451 0.506857 21.9216 1.0532C25.2179 5.03369 28.0375 10.7117 30.3806 18.0873C32.2074 12.9361 34.908 7.35564 38.4822 1.34588C38.8396 0.682467 39.7133 0.292223 41.1033 0.17515C42.4932 0.0580765 44.0619 0.184906 45.8093 0.555638C47.5567 0.926369 49.4133 1.58978 51.3791 2.54588C53.345 3.50198 55.0229 4.64344 56.4128 5.97027C57.7631 7.2971 58.8254 8.79954 59.5998 10.4776C60.3743 12.1556 60.8111 13.7166 60.9104 15.1605C61.0097 16.6044 60.9203 17.902 60.6423 19.0532C60.3643 20.2044 59.9473 21.0532 59.3913 21.5995C57.1277 23.7849 53.0372 26.0483 47.1199 28.3898Z" fill="white"/>
</svg>
